<svg xmlns="http://www.w3.org/2000/svg" viewBox="0 0 195 131">
<path d="M0 0 C2.02 0.97 3.55 2.04 5.27 3.47 C15.49 11.35 26.89 16.42 38.9 20.91 C43.77 22.78 43.77 22.78 44.9 23.91 C44.97 26.11 44.99 28.28 44.96 30.47 C44.96 31.09 44.95 31.7 44.95 32.34 C44.94 33.86 44.92 35.39 44.9 36.91 C48.53 36.91 52.16 36.91 55.9 36.91 C56.94 59.2 49.49 79.99 34.47 96.64 C28.02 103.53 20.84 108.88 12.9 113.91 C12.62 114.09 12.62 114.09 11.23 114.99 C9.63 116.03 8.02 117.03 6.4 118.04 C5.46 118.62 4.52 119.2 3.55 119.79 C0.38 121.13 -0.87 121.01 -4.1 119.91 C-12.28 116.18 -19.71 110.99 -27.1 105.91 C-27.04 107.02 -26.98 108.14 -26.91 109.29 C-26.81 111.18 -26.81 111.18 -27.1 112.91 C-29.44 114.94 -31.22 115.16 -34.26 115.15 C-34.67 115.15 -34.67 115.15 -36.79 115.16 C-37.7 115.16 -38.6 115.15 -39.54 115.14 C-40.48 115.14 -41.43 115.14 -42.41 115.14 C-44.42 115.14 -46.44 115.13 -48.46 115.12 C-51.47 115.1 -54.48 115.1 -57.49 115.1 C-67.15 115.08 -76.8 114.93 -86.45 114.52 C-87.3 114.49 -88.14 114.46 -89.01 114.43 C-89.79 114.39 -90.56 114.36 -91.36 114.32 C-91.7 114.3 -91.7 114.3 -93.41 114.23 C-95.1 113.91 -95.1 113.91 -97.1 111.91 C-97.36 109.98 -97.36 109.98 -97.38 107.6 C-97.38 107.15 -97.38 107.15 -97.41 104.9 C-97.4 103.93 -97.4 102.97 -97.4 101.98 C-97.4 101.48 -97.4 101.48 -97.42 98.98 C-97.42 96.89 -97.42 94.79 -97.42 92.7 C-97.41 89.49 -97.44 86.28 -97.46 83.07 C-97.47 81.04 -97.47 79.01 -97.46 76.98 C-97.47 76.01 -97.48 75.05 -97.49 74.06 C-97.49 73.17 -97.48 72.27 -97.47 71.35 C-97.47 70.56 -97.48 69.78 -97.48 68.97 C-96.99 66.32 -96.29 65.45 -94.1 63.91 C-92.02 63.56 -92.02 63.56 -89.6 63.6 C-89.15 63.6 -89.15 63.6 -86.85 63.62 C-85.87 63.64 -84.89 63.67 -83.89 63.69 C-83.38 63.69 -83.38 63.69 -80.83 63.71 C-77.61 63.74 -74.39 63.79 -71.16 63.85 C-67.94 63.9 -64.72 63.94 -61.5 63.97 C-59.5 63.99 -57.5 64.02 -55.49 64.06 C-55.04 64.06 -55.04 64.06 -52.73 64.09 C-52.33 64.1 -52.33 64.1 -50.31 64.13 C-47.84 63.88 -46.23 63.14 -44.1 61.91 C-44.19 61.33 -44.28 60.76 -44.38 60.16 C-46.31 47.65 -47.55 35.57 -47.1 22.91 C-46.65 22.77 -46.2 22.64 -45.73 22.5 C-30.97 17.84 -16.17 11.97 -4.46 1.58 C-2.1 -0.09 -2.1 -0.09 0 0 Z " fill="#7D4BE2" transform="translate(101.1015625,6.08984375)"/>
<path d="M0 0 C3.63 0 7.26 0 11 0 C12.04 22.29 4.59 43.08 -10.43 59.73 C-16.88 66.62 -24.06 71.97 -32 77 C-32.27 77.18 -32.27 77.18 -33.66 78.08 C-35.27 79.12 -36.88 80.12 -38.5 81.12 C-39.44 81.71 -40.38 82.29 -41.34 82.88 C-44.52 84.22 -45.77 84.1 -49 83 C-57.18 79.27 -64.61 74.08 -72 69 C-71.94 70.11 -71.88 71.23 -71.81 72.38 C-71.71 74.27 -71.71 74.27 -72 76 C-74.34 78.03 -76.11 78.25 -79.15 78.24 C-79.57 78.24 -79.57 78.24 -81.69 78.25 C-82.59 78.25 -83.5 78.24 -84.43 78.23 C-85.38 78.23 -86.33 78.23 -87.3 78.23 C-89.32 78.23 -91.34 78.22 -93.35 78.21 C-96.37 78.19 -99.38 78.19 -102.39 78.19 C-112.05 78.17 -121.7 78.02 -131.35 77.61 C-132.19 77.58 -133.04 77.55 -133.91 77.52 C-134.69 77.48 -135.46 77.45 -136.26 77.41 C-136.6 77.39 -136.6 77.39 -138.31 77.32 C-140 77 -140 77 -142 75 C-142.26 73.07 -142.26 73.07 -142.27 70.69 C-142.28 70.24 -142.28 70.24 -142.3 67.99 C-142.3 67.02 -142.3 66.06 -142.3 65.07 C-142.3 64.57 -142.3 64.57 -142.31 62.07 C-142.32 59.98 -142.32 57.88 -142.32 55.79 C-142.31 52.58 -142.34 49.37 -142.36 46.16 C-142.36 44.13 -142.36 42.1 -142.36 40.07 C-142.37 39.1 -142.38 38.14 -142.39 37.15 C-142.38 36.26 -142.38 35.36 -142.37 34.44 C-142.37 33.65 -142.37 32.87 -142.37 32.06 C-141.89 29.41 -141.18 28.54 -139 27 C-136.92 26.65 -136.92 26.65 -134.5 26.69 C-134.05 26.69 -134.05 26.69 -131.75 26.71 C-130.77 26.73 -129.79 26.75 -128.79 26.78 C-128.28 26.78 -128.28 26.78 -125.73 26.8 C-122.51 26.83 -119.29 26.88 -116.06 26.94 C-112.84 26.99 -109.62 27.03 -106.4 27.06 C-104.4 27.08 -102.39 27.11 -100.39 27.15 C-99.48 27.16 -98.57 27.17 -97.63 27.18 C-97.23 27.19 -97.23 27.19 -95.21 27.22 C-92.7 26.97 -91.12 26.35 -89 25 C-88.25 22.88 -88.25 22.88 -88 21 C-87.71 21.89 -87.42 22.79 -87.12 23.71 C-80.66 42.99 -68.31 58.55 -50 68 C-46.48 69.02 -44.7 69.26 -41.25 67.99 C-22.28 56.67 -8.5 40.37 -2.85 18.76 C-1.37 12.6 -0.67 6.3 0 0 Z " fill="#D1A668" transform="translate(146,43)"/>
<path d="M0 0 C3.63 0 7.26 0 11 0 C12.04 22.29 4.59 43.08 -10.43 59.73 C-16.88 66.62 -24.06 71.97 -32 77 C-32.27 77.18 -32.27 77.18 -33.66 78.08 C-35.27 79.12 -36.88 80.12 -38.5 81.12 C-39.44 81.71 -40.38 82.29 -41.34 82.88 C-44.52 84.22 -45.77 84.09 -49 83 C-70.63 73.29 -89 56.1 -98 34 C-98.39 32.01 -98.74 30.01 -99 28 C-97.27 27.51 -95.55 27.02 -93.82 26.54 C-92.2 26.06 -90.6 25.53 -89 25 C-88.31 22.94 -88.31 22.94 -88 21 C-87.71 21.89 -87.42 22.79 -87.12 23.71 C-80.66 42.99 -68.31 58.55 -50 68 C-46.48 69.02 -44.7 69.26 -41.25 67.99 C-22.28 56.67 -8.5 40.37 -2.85 18.76 C-1.37 12.6 -0.67 6.3 0 0 Z " fill="#C7B8ED" transform="translate(146,43)"/>
<path d="M0 0 C0.8 0 1.6 0 2.43 0 C3.29 0.02 4.15 0.03 5.03 0.05 C5.47 0.05 5.47 0.05 7.71 0.06 C10.53 0.08 13.35 0.11 16.18 0.15 C18.09 0.17 20 0.18 21.92 0.19 C26.61 0.23 31.3 0.28 35.99 0.34 C35.99 0.67 35.99 1 35.99 1.34 C35.36 1.37 34.73 1.39 34.08 1.42 C31.23 1.53 28.39 1.65 25.55 1.78 C25.05 1.8 25.05 1.8 22.54 1.9 C22.07 1.92 22.07 1.92 19.68 2.02 C18.8 2.06 17.93 2.1 17.03 2.14 C14.99 2.34 14.99 2.34 13.99 3.34 C13.87 4.75 13.81 6.17 13.78 7.58 C13.76 8.49 13.74 9.39 13.72 10.31 C13.71 11.29 13.69 12.27 13.67 13.28 C13.65 14.28 13.63 15.28 13.61 16.3 C13.54 19.5 13.48 22.7 13.43 25.9 C13.38 28.07 13.34 30.23 13.29 32.39 C13.19 37.71 13.09 43.02 12.99 48.34 C6.32 48.34 -0.35 48.34 -7.01 48.34 C-7.09 41.99 -7.14 35.63 -7.18 29.28 C-7.19 27.12 -7.21 24.96 -7.24 22.79 C-7.28 19.69 -7.29 16.58 -7.31 13.48 C-7.32 12.51 -7.34 11.54 -7.35 10.54 C-7.35 9.64 -7.35 8.74 -7.35 7.81 C-7.36 7.02 -7.37 6.23 -7.37 5.41 C-6.62 1.11 -4.09 -0.04 0 0 Z " fill="#DCB579" transform="translate(11.012451171875,69.659423828125)"/>
<path d="M0 0 C2.38 1.56 2.38 1.56 4 4 C3.92 10.38 1.68 13.22 -2.76 17.59 C-3.34 18.18 -3.92 18.77 -4.52 19.38 C-5.75 20.61 -6.98 21.84 -8.23 23.06 C-10.12 24.93 -11.98 26.84 -13.84 28.74 C-15.04 29.94 -16.24 31.14 -17.45 32.34 C-18 32.91 -18.55 33.48 -19.12 34.06 C-21.85 36.7 -23.8 38.35 -27.69 38.52 C-31.05 37.99 -32.18 37.67 -34.46 35.26 C-35.01 34.69 -35.57 34.12 -36.14 33.53 C-36.69 32.92 -37.24 32.31 -37.81 31.69 C-38.38 31.09 -38.96 30.5 -39.54 29.88 C-45.8 23.31 -45.8 23.31 -46.38 19.56 C-46 17 -46 17 -44.38 14.69 C-42 13 -42 13 -39.25 12.25 C-34.76 13.29 -32.78 15.81 -29.73 19.15 C-28 21 -28 21 -26 22 C-25.75 21.42 -25.5 20.85 -25.24 20.25 C-23.83 17.7 -22.22 15.98 -20.16 13.93 C-19.4 13.18 -18.65 12.43 -17.88 11.65 C-17.09 10.88 -16.31 10.11 -15.5 9.31 C-14.71 8.53 -13.93 7.74 -13.12 6.94 C-5.47 -0.65 -5.47 -0.65 0 0 Z " fill="#EFEDF7" transform="translate(122,41)"/>
<path d="M0 0 C0.99 0.33 1.98 0.66 3 1 C3.77 2.67 3.77 2.67 4.38 4.75 C6.26 10.2 9.13 13.17 14.31 15.81 C15.2 16.2 16.09 16.6 17 17 C17 17.99 17 18.98 17 20 C16.48 20.2 15.96 20.39 15.43 20.59 C8.3 23.65 5.71 28.08 2.69 35 C2.46 35.66 2.23 36.32 2 37 C0.09 36.77 0.09 36.77 -2 36 C-2.84 34.11 -2.84 34.11 -3.38 31.75 C-5.08 25.87 -8.18 23.56 -13.38 20.69 C-13.91 20.46 -14.45 20.23 -15 20 C-14.74 18.15 -14.74 18.15 -14 16 C-12.26 14.69 -12.26 14.69 -10.12 13.56 C-4.75 10.43 -3.2 6.66 -1 1 C-0.67 0.67 -0.34 0.34 0 0 Z " fill="#A582ED" transform="translate(174,4)"/>
<path d="M0 0 C2.55 1.28 2.67 2.28 3.75 4.88 C5.78 9.16 7.6 10.4 12 12 C10.82 15.54 9.61 15.87 6.57 17.75 C3.85 19.92 2.48 22.9 1 26 C0.01 25.67 -0.98 25.34 -2 25 C-2.67 23 -3.33 21 -4 19 C-4.72 18.32 -5.44 17.64 -6.19 16.94 C-8 15 -8 15 -8 12.5 C-6.82 9.55 -5.27 8.2 -3 6 C-1.85 4.05 -0.94 2.07 0 0 Z " fill="#9E7BED" transform="translate(172,66)"/>
<path d="M0 0 C0.66 0.33 1.32 0.66 2 1 C2 1.66 2 2.32 2 3 C-4.29 6.43 -4.29 6.43 -8 6 C-8 6.66 -8 7.32 -8 8 C-9 8.35 -10 8.7 -11.03 9.06 C-12.33 9.52 -13.63 9.98 -14.94 10.44 C-15.6 10.67 -16.26 10.9 -16.94 11.13 C-21.89 12.89 -21.89 12.89 -23 14 C-23.14 15.2 -23.23 16.4 -23.28 17.61 C-23.32 18.34 -23.36 19.08 -23.39 19.84 C-23.43 20.61 -23.46 21.39 -23.5 22.19 C-23.73 27.2 -24.06 32.06 -25 37 C-25.33 37 -25.66 37 -26 37 C-27.26 28.34 -27.09 19.73 -27 11 C-26.48 10.84 -25.97 10.68 -25.43 10.52 C-19.83 8.78 -14.42 6.6 -9 4.38 C-8.23 4.06 -7.47 3.75 -6.68 3.43 C-5.96 3.13 -5.24 2.83 -4.5 2.52 C-3.85 2.25 -3.2 1.99 -2.53 1.71 C-1 1 -1 1 0 0 Z " fill="#8A62E2" transform="translate(81,18)"/>
<path d="M0 0 C0.66 0.33 1.32 0.66 2 1 C2.08 2.29 2.14 3.58 2.19 4.88 C2.2 5.23 2.2 5.23 2.29 7.05 C2 9 2 9 0.76 10.11 C-1.45 11.23 -2.99 11.24 -5.47 11.23 C-5.92 11.23 -5.92 11.23 -8.2 11.23 C-9.17 11.22 -10.14 11.21 -11.14 11.2 C-11.63 11.19 -11.63 11.19 -14.15 11.19 C-17.33 11.18 -20.51 11.15 -23.69 11.12 C-25.84 11.11 -28 11.11 -30.15 11.1 C-35.43 11.08 -40.72 11.04 -46 11 C-46 10.34 -46 9.68 -46 9 C-38.41 8.84 -38.41 8.84 0 8 C0 5.36 0 2.72 0 0 Z " fill="#BE9D78" transform="translate(72,110)"/>
<path d="M0 0 C0.16 0.33 0.16 0.33 1 2 C-1.3 4.69 -3.64 7.36 -6 10 C-6.52 10.59 -7.03 11.17 -7.57 11.77 C-12.52 17.06 -18.39 20.98 -24.41 24.94 C-25.5 25.67 -26.57 26.42 -27.63 27.19 C-29.04 28.2 -30.52 29.11 -32 30 C-32.99 29.67 -33.98 29.34 -35 29 C-34.37 28.56 -33.74 28.13 -33.09 27.68 C-28.31 24.35 -23.57 20.99 -18.93 17.46 C-17.63 16.47 -16.31 15.51 -14.97 14.57 C-10.5 11.39 -6.96 7.95 -3.45 3.73 C-2 2 -2 2 0 0 Z " fill="#B0A0DE" transform="translate(140,94)"/>
<path d="M0 0 C0.66 0.66 1.32 1.32 2 2 C-1.69 5.87 -5.41 9.71 -9.15 13.54 C-10.42 14.84 -11.68 16.15 -12.94 17.46 C-14.74 19.36 -16.57 21.23 -18.41 23.09 C-18.69 23.39 -18.69 23.39 -20.09 24.88 C-22.95 27.75 -24.75 29.36 -28.91 29.37 C-29.93 29.25 -30.95 29.13 -32 29 C-32 28.67 -32 28.34 -32 28 C-30.98 27.8 -29.96 27.59 -28.91 27.38 C-24.3 26.06 -21.71 23.31 -18.5 19.88 C-17.94 19.29 -17.37 18.71 -16.79 18.1 C-13.22 14.39 -9.77 10.58 -6.43 6.66 C-4.4 4.31 -2.23 2.16 0 0 Z " fill="#D3CCE8" transform="translate(123,50)"/>
<path d="M0 0 C0.66 0.33 1.32 0.66 2 1 C-5.47 9.2 -13.08 17.22 -21 25 C-21.33 24.01 -21.66 23.02 -22 22 C-14.74 14.74 -7.48 7.48 0 0 Z " fill="#6237C6" transform="translate(123,53)"/>
<path d="M0 0 C0.33 0.66 0.66 1.32 1 2 C-3.61 12.42 -12.18 21.02 -21 28 C-21.66 27.67 -22.32 27.34 -23 27 C-21.68 26.34 -20.36 25.68 -19 25 C-19 24.34 -19 23.68 -19 23 C-17.85 21.95 -16.66 20.96 -15.44 20 C-10.64 15.94 -7.4 11.24 -4 6 C-3.19 4.79 -2.38 3.58 -1.56 2.38 C-1.05 1.59 -0.53 0.81 0 0 Z " fill="#5E31C4" transform="translate(137,76)"/>
<path d="M0 0 C0.66 0.33 1.32 0.66 2 1 C0.71 7.19 -2 11.15 -6 16 C-6.66 15.67 -7.32 15.34 -8 15 C-7.51 10.57 -6.14 9.04 -3 6 C-1.85 4.05 -0.94 2.07 0 0 Z " fill="#BEA0F7" transform="translate(172,66)"/>
<path d="M0 0 C0.66 0.33 1.32 0.66 2 1 C-1.3 4.63 -4.6 8.26 -8 12 C-8.33 11.01 -8.66 10.02 -9 9 C-6.03 6.03 -3.06 3.06 0 0 Z " fill="#592AC3" transform="translate(123,53)"/>
<path d="M0 0 C0.25 2.25 0.25 2.25 0 5 C-2 7.31 -2 7.31 -4 9 C-4.75 6.75 -4.75 6.75 -5 4 C-1.76 0 -1.76 0 0 0 Z " fill="#D1BDFA" transform="translate(169,73)"/>
<path d="M0 0 C0.98 3.08 0.99 5.02 0.12 8.12 C-0.06 8.81 -0.24 9.49 -0.43 10.2 C-1 12 -1 12 -2 14 C-2.66 13.67 -3.32 13.34 -4 13 C-3.53 11.02 -3.04 9.04 -2.56 7.06 C-2.3 5.96 -2.03 4.86 -1.75 3.72 C-1 1 -1 1 0 0 Z " fill="#5F34CC" transform="translate(143,56)"/>
<path d="M0 0 C4.68 1.34 8.04 3.17 12 6 C9 7 9 7 6.74 6 C5.94 5.53 5.14 5.05 4.31 4.56 C3.5 4.09 2.7 3.62 1.86 3.13 C1.25 2.76 0.63 2.38 0 2 C0 1.34 0 0.68 0 0 Z " fill="#7347D6" transform="translate(115,17)"/>
<path d="M0 0 C0.66 0.33 1.32 0.66 2 1 C2 3.64 2 6.28 2 9 C0.35 9.33 -1.3 9.66 -3 10 C-2.67 9.34 -2.34 8.68 -2 8 C-1.34 8 -0.68 8 0 8 C0 5.36 0 2.72 0 0 Z " fill="#AF8553" transform="translate(72,110)"/>
<path d="M0 0 C1.47 3.81 0.43 6.29 -1 10 C-1.99 9.67 -2.98 9.34 -4 9 C-3.52 7.69 -3.04 6.37 -2.56 5.06 C-2.3 4.33 -2.03 3.6 -1.75 2.85 C-1 1 -1 1 0 0 Z " fill="#825BDD" transform="translate(178,30)"/>
<path d="M0 0 C0.99 0.33 1.98 0.66 3 1 C1.68 2.32 0.36 3.64 -1 5 C-1.99 4.34 -2.98 3.68 -4 3 C-2.19 1.44 -2.19 1.44 0 0 Z " fill="#8A61E4" transform="translate(91,12)"/>
</svg>
